<?xml version="1.0" standalone="no"?>
<!DOCTYPE svg PUBLIC "-//W3C//DTD SVG 20010904//EN"
 "http://www.w3.org/TR/2001/REC-SVG-20010904/DTD/svg10.dtd">
<svg version="1.0" xmlns="http://www.w3.org/2000/svg"
 width="512.000000pt" height="512.000000pt" viewBox="0 0 512.000000 512.000000"
 preserveAspectRatio="xMidYMid meet">
<metadata>
Created by potrace 1.14, written by Peter Selinger 2001-2017
</metadata>
<g transform="translate(0.000000,512.000000) scale(0.100000,-0.100000)"
fill="#000000" stroke="none">
<path d="M0 2560 l0 -2560 2560 0 2560 0 0 2560 0 2560 -2560 0 -2560 0 0
-2560z m842 233 c57 -98 112 -197 122 -221 21 -48 23 -47 40 2 7 20 57 117
112 216 l99 180 68 0 67 0 0 -390 0 -390 -76 0 -77 0 5 258 c3 141 9 266 13
277 5 14 5 17 -2 10 -6 -5 -19 -33 -29 -60 -11 -28 -57 -117 -103 -198 -80
-142 -97 -160 -127 -139 -18 12 -176 283 -196 336 -29 77 -37 75 -22 -6 8 -43
13 -155 13 -275 l1 -203 -75 0 -75 0 0 390 0 390 69 0 69 0 104 -177z m1929
-125 c1 -167 4 -314 8 -328 6 -22 13 -25 54 -28 46 -3 47 -4 47 -35 0 -18 3
-42 6 -53 5 -17 -1 -24 -27 -33 -42 -15 -141 -14 -174 1 -53 24 -55 37 -55
423 l0 355 70 0 70 0 1 -302z m-942 64 c23 -12 44 -34 59 -62 21 -42 22 -55
20 -230 -2 -102 1 -200 5 -217 l9 -33 -61 0 -60 0 -7 35 c-3 19 -9 35 -11 35
-3 0 -20 -13 -39 -29 -74 -66 -188 -66 -253 0 -57 57 -63 151 -13 210 42 51
96 71 200 77 l92 5 0 31 c0 85 -67 102 -232 61 -24 -6 -27 -3 -42 41 -9 26
-16 51 -16 55 0 7 103 36 155 43 57 8 158 -4 194 -22z m1470 -1 c20 -10 43
-34 55 -57 19 -36 21 -56 21 -244 0 -113 4 -213 9 -222 7 -16 2 -18 -52 -18
-60 0 -61 0 -72 34 l-11 35 -45 -34 c-137 -105 -323 -4 -289 157 19 85 91 128
228 136 l88 5 -3 46 c-3 40 -7 48 -32 60 -25 11 -43 12 -100 3 -39 -7 -81 -15
-93 -18 -24 -7 -37 15 -50 77 -4 24 -1 28 33 39 98 33 252 33 313 1z m614 3
c56 -42 62 -69 65 -316 l3 -228 -69 0 -70 0 -3 189 c-4 174 -6 192 -25 218
-16 22 -31 29 -63 31 -36 3 -46 -1 -76 -31 l-35 -35 0 -186 0 -186 -70 0 -70
0 0 270 c0 149 0 273 0 278 0 4 26 7 57 7 50 0 58 -3 61 -20 7 -47 12 -49 40
-22 45 43 89 58 163 54 45 -3 75 -10 92 -23z m536 -3 c20 -10 43 -34 55 -57
19 -36 21 -57 21 -244 0 -113 4 -213 9 -222 7 -16 2 -18 -52 -18 -60 0 -61 0
-72 34 l-11 35 -45 -34 c-137 -105 -323 -4 -289 157 19 85 91 128 227 136 95
5 104 13 89 70 -12 44 -52 57 -135 44 -39 -7 -81 -15 -93 -18 -24 -7 -37 15
-50 77 -4 24 -1 28 33 39 98 33 252 33 313 1z m-2279 -181 c6 -228 10 -240 73
-240 50 0 81 19 103 62 14 26 16 60 13 202 l-4 171 70 0 70 0 5 -265 c3 -146
9 -271 13 -278 7 -10 -3 -12 -50 -10 -58 3 -58 3 -67 41 -10 39 -20 47 -30 22
-3 -8 -27 -29 -53 -45 -40 -26 -57 -30 -113 -30 -80 0 -122 23 -153 83 -17 34
-20 65 -25 247 -3 115 -2 216 1 225 6 13 19 15 74 13 l68 -3 5 -195z"/>
<path d="M1662 2429 c-73 -17 -92 -79 -36 -115 55 -37 149 21 142 87 -3 30 -7
34 -33 36 -16 1 -49 -3 -73 -8z"/>
<path d="M3136 2429 c-70 -17 -95 -59 -62 -105 21 -29 98 -25 132 7 20 19 24
31 22 64 -3 35 -6 40 -28 42 -14 1 -43 -3 -64 -8z"/>
<path d="M4286 2429 c-70 -17 -95 -59 -62 -105 21 -29 98 -25 132 7 20 19 24
31 22 64 -3 35 -6 40 -28 42 -14 1 -43 -3 -64 -8z"/>
</g>
</svg>
